<svg width="79" height="51" viewBox="0 0 79 51" fill="none" xmlns="http://www.w3.org/2000/svg">
<path d="M73.6541 9.09028V45.3785C73.6541 45.9646 73.5386 46.545 73.3142 47.0865C73.0898 47.6279 72.7609 48.1199 72.3462 48.5341C71.9316 48.9484 71.4394 49.2769 70.8978 49.5009C70.3561 49.7248 69.7757 49.8399 69.1896 49.8394H11.6416C11.0554 49.8399 10.475 49.7248 9.93332 49.5009C9.39168 49.2769 8.89948 48.9484 8.48486 48.5341C8.07024 48.1199 7.74133 47.6279 7.51692 47.0865C7.29251 46.545 7.177 45.9646 7.177 45.3785V9.09028C7.177 8.50416 7.29251 7.92379 7.51692 7.38233C7.74133 6.84087 8.07024 6.34894 8.48486 5.93466C8.89948 5.52038 9.39168 5.19187 9.93332 4.96791C10.475 4.74394 11.0554 4.62891 11.6416 4.6294H69.1896C69.7757 4.62891 70.3561 4.74394 70.8978 4.96791C71.4394 5.19187 71.9316 5.52038 72.3462 5.93466C72.7609 6.34894 73.0898 6.84087 73.3142 7.38233C73.5386 7.92379 73.6541 8.50416 73.6541 9.09028Z" fill="white"/>
<path d="M69.1895 50.1985H11.6415C10.3608 50.1975 9.13276 49.6888 8.22649 48.7839C7.32022 47.879 6.80967 46.6517 6.80676 45.371V9.0828C6.80967 7.80211 7.32022 6.57482 8.22649 5.66992C9.13276 4.76502 10.3608 4.25634 11.6415 4.25537H69.1895C70.4702 4.25634 71.6983 4.76502 72.6045 5.66992C73.5108 6.57482 74.0214 7.80211 74.0243 9.0828V45.371C74.0214 46.6517 73.5108 47.879 72.6045 48.7839C71.6983 49.6888 70.4702 50.1975 69.1895 50.1985ZM11.6415 4.9958C10.555 4.99579 9.5128 5.42693 8.7438 6.19455C7.9748 6.96218 7.5418 8.00358 7.53986 9.09014V45.3784C7.5418 46.4649 7.9748 47.5063 8.7438 48.2739C9.5128 49.0416 10.555 49.4727 11.6415 49.4727H69.1895C70.2761 49.4727 71.3182 49.0416 72.0872 48.2739C72.8562 47.5063 73.2892 46.4649 73.2912 45.3784V9.09014C73.2892 8.00358 72.8562 6.96218 72.0872 6.19455C71.3182 5.42693 70.2761 4.99579 69.1895 4.9958H11.6415Z" fill="#093F68"/>
<path d="M13.1774 32.333H19.7312V43.5017H13.1774V32.333Z" fill="#6881FD"/>
<path d="M19.7312 43.8686H13.1773C13.0801 43.8686 12.9869 43.83 12.9182 43.7612C12.8494 43.6925 12.8108 43.5993 12.8108 43.5021V32.3333C12.8108 32.2361 12.8494 32.1429 12.9182 32.0742C12.9869 32.0054 13.0801 31.9668 13.1773 31.9668H19.7312C19.8284 31.9668 19.9217 32.0054 19.9904 32.0742C20.0591 32.1429 20.0978 32.2361 20.0978 32.3333V43.5021C20.0978 43.5993 20.0591 43.6925 19.9904 43.7612C19.9217 43.83 19.8284 43.8686 19.7312 43.8686ZM13.5439 43.1355H19.3647V32.6999H13.5439V43.1355Z" fill="#093F68"/>
<path d="M25.1598 28.0151H31.7137V43.5054H25.1598V28.0151Z" fill="#6881FD"/>
<path d="M31.7136 43.8687H25.1598C25.0625 43.8687 24.9693 43.83 24.9006 43.7613C24.8318 43.6926 24.7932 43.5993 24.7932 43.5021V28.0155C24.7932 27.9183 24.8318 27.825 24.9006 27.7563C24.9693 27.6875 25.0625 27.6489 25.1598 27.6489H31.7136C31.8109 27.6489 31.9041 27.6875 31.9728 27.7563C32.0416 27.825 32.0802 27.9183 32.0802 28.0155V43.5021C32.0802 43.5993 32.0416 43.6926 31.9728 43.7613C31.9041 43.83 31.8109 43.8687 31.7136 43.8687ZM25.5263 43.1356H31.3471V28.382H25.5263V43.1356Z" fill="#093F68"/>
<path d="M37.146 20.1089H43.6999V43.502H37.146V20.1089Z" fill="#6881FD"/>
<path d="M43.6998 43.8684H37.146C37.0488 43.8684 36.9555 43.8297 36.8868 43.761C36.818 43.6923 36.7794 43.599 36.7794 43.5018V20.1087C36.7794 20.0115 36.818 19.9183 36.8868 19.8495C36.9555 19.7808 37.0488 19.7422 37.146 19.7422H43.6998C43.7971 19.7422 43.8903 19.7808 43.959 19.8495C44.0278 19.9183 44.0664 20.0115 44.0664 20.1087V43.5018C44.0664 43.599 44.0278 43.6923 43.959 43.761C43.8903 43.8297 43.7971 43.8684 43.6998 43.8684ZM37.5125 43.1353H43.3333V20.4753H37.5125V43.1353Z" fill="#093F68"/>
<path d="M49.1321 32.8022H55.686V43.5018H49.1321V32.8022Z" fill="#6881FD"/>
<path d="M55.6859 43.8684H49.1321C49.0348 43.8684 48.9416 43.8298 48.8729 43.761C48.8041 43.6923 48.7655 43.5991 48.7655 43.5019V32.806C48.7655 32.7088 48.8041 32.6156 48.8729 32.5468C48.9416 32.4781 49.0348 32.4395 49.1321 32.4395H55.6859C55.7831 32.4395 55.8764 32.4781 55.9451 32.5468C56.0139 32.6156 56.0525 32.7088 56.0525 32.806V43.5019C56.0525 43.5991 56.0139 43.6923 55.9451 43.761C55.8764 43.8298 55.7831 43.8684 55.6859 43.8684ZM49.4986 43.1353H55.3194V33.1725H49.4986V43.1353Z" fill="#093F68"/>
<path d="M61.1145 20.1089H67.6684V43.502H61.1145V20.1089Z" fill="#6881FD"/>
<path d="M67.6683 43.8684H61.1145C61.0173 43.8684 60.924 43.8297 60.8553 43.761C60.7865 43.6923 60.7479 43.599 60.7479 43.5018V20.1087C60.7479 20.0115 60.7865 19.9183 60.8553 19.8495C60.924 19.7808 61.0173 19.7422 61.1145 19.7422H67.6683C67.7656 19.7422 67.8588 19.7808 67.9275 19.8495C67.9963 19.9183 68.0349 20.0115 68.0349 20.1087V43.5018C68.0349 43.599 67.9963 43.6923 67.9275 43.761C67.8588 43.8297 67.7656 43.8684 67.6683 43.8684ZM61.481 43.1353H67.3018V20.4753H61.481V43.1353Z" fill="#093F68"/>
<path d="M52.4091 36.4424C52.3591 36.4427 52.3095 36.4328 52.2635 36.4132C52.2175 36.3937 52.176 36.365 52.1415 36.3288L40.3643 23.9321L28.6348 31.483L28.5725 31.516L16.5974 36.2994C16.5069 36.3354 16.4059 36.334 16.3166 36.2955C16.2272 36.257 16.1568 36.1846 16.1208 36.0942C16.0849 36.0038 16.0863 35.9028 16.1248 35.8134C16.1633 35.724 16.2357 35.6536 16.3261 35.6177L28.2756 30.8525L40.2323 23.155C40.3046 23.1088 40.3907 23.0894 40.4757 23.1001C40.5608 23.1108 40.6394 23.151 40.6979 23.2137L52.4274 35.559L64.1569 23.2137C64.1888 23.1747 64.2283 23.1427 64.2731 23.1197C64.3179 23.0966 64.3669 23.0831 64.4172 23.0799C64.4674 23.0766 64.5178 23.0838 64.5652 23.1009C64.6125 23.118 64.6559 23.1446 64.6925 23.1792C64.7291 23.2138 64.7581 23.2555 64.7779 23.3019C64.7976 23.3482 64.8077 23.3981 64.8073 23.4484C64.8069 23.4988 64.7961 23.5485 64.7757 23.5945C64.7552 23.6405 64.7255 23.6818 64.6884 23.7159L52.7023 36.3434C52.6636 36.3803 52.6173 36.4083 52.5666 36.4254C52.516 36.4425 52.4622 36.4483 52.4091 36.4424Z" fill="#093F68"/>
<path d="M16.4543 37.7729C17.4564 37.7729 18.2687 36.9605 18.2687 35.9585C18.2687 34.9564 17.4564 34.144 16.4543 34.144C15.4522 34.144 14.6399 34.9564 14.6399 35.9585C14.6399 36.9605 15.4522 37.7729 16.4543 37.7729Z" fill="#F56132"/>
<path d="M16.4543 38.1393C16.0228 38.14 15.6007 38.0127 15.2416 37.7735C14.8825 37.5343 14.6024 37.1939 14.4367 36.7955C14.2711 36.397 14.2274 35.9584 14.3111 35.5351C14.3949 35.1118 14.6023 34.7228 14.9071 34.4174C15.212 34.1121 15.6006 33.904 16.0238 33.8195C16.4469 33.7351 16.8857 33.778 17.2844 33.943C17.6831 34.108 18.0239 34.3875 18.2638 34.7462C18.5036 35.105 18.6316 35.5268 18.6316 35.9583C18.6268 36.5346 18.396 37.086 17.9888 37.4939C17.5816 37.9018 17.0306 38.1335 16.4543 38.1393ZM16.4543 34.5141C16.1676 34.5134 15.8872 34.5978 15.6485 34.7566C15.4099 34.9154 15.2237 35.1415 15.1137 35.4062C15.0036 35.6709 14.9746 35.9623 15.0304 36.2435C15.0861 36.5247 15.2241 36.783 15.4268 36.9858C15.6295 37.1885 15.8879 37.3264 16.1691 37.3822C16.4502 37.4379 16.7417 37.4089 17.0064 37.2989C17.2711 37.1889 17.4972 37.0027 17.656 36.7641C17.8148 36.5254 17.8992 36.245 17.8985 35.9583C17.8985 35.5753 17.7463 35.2079 17.4755 34.9371C17.2046 34.6663 16.8373 34.5141 16.4543 34.5141Z" fill="#093F68"/>
<path d="M28.4368 32.9784C29.4389 32.9784 30.2513 32.1661 30.2513 31.164C30.2513 30.1619 29.4389 29.3496 28.4368 29.3496C27.4348 29.3496 26.6224 30.1619 26.6224 31.164C26.6224 32.1661 27.4348 32.9784 28.4368 32.9784Z" fill="#F56132"/>
<path d="M28.4367 33.3448C28.0062 33.3448 27.5852 33.2174 27.227 32.9785C26.8687 32.7397 26.5892 32.4001 26.4236 32.0027C26.258 31.6052 26.2138 31.1676 26.2964 30.7451C26.3791 30.3225 26.585 29.9339 26.8882 29.6282C27.1914 29.3224 27.5783 29.1133 28.0001 29.0271C28.422 28.9409 28.8599 28.9814 29.2587 29.1437C29.6576 29.306 29.9994 29.5827 30.2413 29.9389C30.4831 30.2951 30.6141 30.715 30.6177 31.1455C30.6177 31.7257 30.3885 32.2823 29.98 32.6942C29.5715 33.1062 29.0168 33.34 28.4367 33.3448ZM28.4367 29.7197C28.1502 29.7197 27.8702 29.8047 27.632 29.9639C27.3938 30.1232 27.2082 30.3495 27.0987 30.6143C26.9893 30.8791 26.9608 31.1704 27.017 31.4514C27.0731 31.7323 27.2114 31.9903 27.4143 32.1926C27.6171 32.395 27.8754 32.5326 28.1565 32.588C28.4376 32.6435 28.7289 32.6143 28.9934 32.5041C29.2579 32.394 29.4837 32.2078 29.6424 31.9693C29.801 31.7307 29.8853 31.4504 29.8846 31.1639C29.8846 30.9739 29.8471 30.7858 29.7743 30.6104C29.7015 30.4349 29.5948 30.2755 29.4603 30.1414C29.3258 30.0072 29.1662 29.9009 28.9905 29.8286C28.8149 29.7562 28.6267 29.7192 28.4367 29.7197Z" fill="#093F68"/>
<path d="M40.4229 25.2626C41.425 25.2626 42.2373 24.4503 42.2373 23.4482C42.2373 22.4461 41.425 21.6338 40.4229 21.6338C39.4209 21.6338 38.6085 22.4461 38.6085 23.4482C38.6085 24.4503 39.4209 25.2626 40.4229 25.2626Z" fill="#F56132"/>
<path d="M40.4229 25.629C39.9916 25.629 39.5699 25.5011 39.2112 25.2614C38.8526 25.0218 38.573 24.6812 38.408 24.2827C38.2429 23.8841 38.1997 23.4456 38.2839 23.0226C38.368 22.5995 38.5757 22.2109 38.8807 21.9059C39.1857 21.6009 39.5744 21.3931 39.9974 21.309C40.4205 21.2248 40.859 21.268 41.2575 21.4331C41.656 21.5982 41.9967 21.8777 42.2363 22.2364C42.476 22.595 42.6039 23.0167 42.6039 23.448C42.5991 24.025 42.3678 24.577 41.9598 24.9849C41.5518 25.3929 40.9999 25.6242 40.4229 25.629ZM40.4229 22.0039C40.1364 22.0039 39.8563 22.0889 39.6181 22.2481C39.38 22.4074 39.1944 22.6337 39.0849 22.8985C38.9754 23.1633 38.947 23.4546 39.0031 23.7355C39.0593 24.0165 39.1976 24.2745 39.4004 24.4768C39.6033 24.6791 39.8616 24.8168 40.1427 24.8722C40.4238 24.9277 40.715 24.8985 40.9795 24.7883C41.244 24.6782 41.4699 24.492 41.6285 24.2534C41.7872 24.0149 41.8715 23.7346 41.8708 23.448C41.8698 23.0647 41.7168 22.6974 41.4454 22.4266C41.174 22.1559 40.8063 22.0039 40.4229 22.0039Z" fill="#093F68"/>
<path d="M52.409 37.8901C53.4111 37.8901 54.2234 37.0777 54.2234 36.0756C54.2234 35.0736 53.4111 34.2612 52.409 34.2612C51.4069 34.2612 50.5946 35.0736 50.5946 36.0756C50.5946 37.0777 51.4069 37.8901 52.409 37.8901Z" fill="#F56132"/>
<path d="M52.409 38.2564C51.9783 38.2572 51.557 38.1303 51.1983 37.8919C50.8396 37.6535 50.5595 37.3142 50.3933 36.9168C50.2271 36.5194 50.1824 36.0817 50.2646 35.659C50.3469 35.2362 50.5525 34.8472 50.8555 34.5411C51.1586 34.235 51.5455 34.0255 51.9674 33.939C52.3894 33.8525 52.8275 33.8928 53.2265 34.055C53.6256 34.2171 53.9676 34.4938 54.2096 34.8501C54.4516 35.2065 54.5827 35.6265 54.5863 36.0572C54.5864 36.6367 54.3577 37.1927 53.95 37.6046C53.5423 38.0164 52.9885 38.2507 52.409 38.2564ZM52.409 34.6313C52.1224 34.6306 51.8419 34.715 51.6033 34.8738C51.3646 35.0326 51.1785 35.2587 51.0684 35.5234C50.9584 35.7881 50.9294 36.0795 50.9852 36.3607C51.0409 36.6419 51.1789 36.9002 51.3816 37.1029C51.5843 37.3057 51.8426 37.4436 52.1238 37.4994C52.405 37.5551 52.6964 37.5261 52.9611 37.4161C53.2259 37.3061 53.4519 37.1199 53.6108 36.8813C53.7696 36.6426 53.854 36.3622 53.8532 36.0755C53.8523 35.6928 53.6998 35.326 53.4292 35.0554C53.1585 34.7847 52.7918 34.6323 52.409 34.6313Z" fill="#093F68"/>
<path d="M64.3914 25.2626C65.3935 25.2626 66.2058 24.4503 66.2058 23.4482C66.2058 22.4461 65.3935 21.6338 64.3914 21.6338C63.3894 21.6338 62.577 22.4461 62.577 23.4482C62.577 24.4503 63.3894 25.2626 64.3914 25.2626Z" fill="#F56132"/>
<path d="M64.3914 25.629C63.9601 25.629 63.5384 25.5011 63.1797 25.2614C62.8211 25.0218 62.5415 24.6812 62.3765 24.2827C62.2114 23.8841 62.1682 23.4456 62.2524 23.0226C62.3365 22.5995 62.5442 22.2109 62.8492 21.9059C63.1543 21.6009 63.5429 21.3931 63.9659 21.309C64.389 21.2248 64.8275 21.268 65.226 21.4331C65.6245 21.5982 65.9652 21.8777 66.2048 22.2364C66.4445 22.595 66.5724 23.0167 66.5724 23.448C66.5724 24.0265 66.3426 24.5812 65.9336 24.9902C65.5246 25.3992 64.9698 25.629 64.3914 25.629ZM64.3914 22.0039C64.1049 22.0039 63.8248 22.0889 63.5866 22.2481C63.3485 22.4074 63.1629 22.6337 63.0534 22.8985C62.9439 23.1633 62.9155 23.4546 62.9716 23.7355C63.0278 24.0165 63.1661 24.2745 63.3689 24.4768C63.5718 24.6791 63.8301 24.8168 64.1112 24.8722C64.3923 24.9277 64.6835 24.8985 64.948 24.7883C65.2125 24.6782 65.4384 24.492 65.597 24.2534C65.7557 24.0149 65.84 23.7346 65.8393 23.448C65.8383 23.0647 65.6853 22.6974 65.4139 22.4266C65.1425 22.1559 64.7748 22.0039 64.3914 22.0039Z" fill="#093F68"/>
<path d="M73.6541 9.09028V10.3402H7.19165V9.09028C7.19165 8.50416 7.30716 7.92379 7.53157 7.38233C7.75598 6.84087 8.08489 6.34894 8.49951 5.93466C8.91413 5.52038 9.40633 5.19187 9.94797 4.96791C10.4896 4.74394 11.0701 4.62891 11.6562 4.6294H69.2042C70.3854 4.63231 71.5172 5.10358 72.3514 5.93984C73.1856 6.77611 73.6541 7.90909 73.6541 9.09028Z" fill="#6881FD"/>
<path d="M73.6578 10.7066H7.18808C7.09087 10.7066 6.99763 10.668 6.92889 10.5992C6.86015 10.5305 6.82153 10.4373 6.82153 10.3401V9.09013C6.82444 7.80944 7.33499 6.58214 8.24126 5.67724C9.14753 4.77234 10.3756 4.26366 11.6563 4.2627H69.2043C70.485 4.26366 71.7131 4.77234 72.6193 5.67724C73.5256 6.58214 74.0361 7.80944 74.039 9.09013V10.3401C74.0391 10.3895 74.0292 10.4383 74.0098 10.4838C73.9905 10.5293 73.9622 10.5703 73.9266 10.6046C73.891 10.6388 73.8488 10.6655 73.8026 10.683C73.7564 10.7006 73.7072 10.7086 73.6578 10.7066ZM7.55463 9.97351H73.2913V9.09013C73.2894 8.00357 72.8564 6.96218 72.0874 6.19455C71.3184 5.42692 70.2762 4.99579 69.1896 4.99579H11.6416C10.5551 4.99579 9.51291 5.42692 8.74391 6.19455C7.9749 6.96218 7.54191 8.00357 7.53997 9.09013L7.55463 9.97351Z" fill="#093F68"/>
<path d="M68.4931 16.0729H59.1168C59.0196 16.0729 58.9263 16.0343 58.8576 15.9656C58.7889 15.8968 58.7502 15.8036 58.7502 15.7064C58.7502 15.6092 58.7889 15.5159 58.8576 15.4472C58.9263 15.3785 59.0196 15.3398 59.1168 15.3398H68.5077C68.605 15.3398 68.6982 15.3785 68.7669 15.4472C68.8357 15.5159 68.8743 15.6092 68.8743 15.7064C68.8743 15.8036 68.8357 15.8968 68.7669 15.9656C68.6982 16.0343 68.605 16.0729 68.5077 16.0729H68.4931Z" fill="#DFEAEF"/>
<path d="M25.761 17.0334H14.9332C14.836 17.0334 14.7428 16.9948 14.674 16.926C14.6053 16.8573 14.5667 16.7641 14.5667 16.6668C14.5667 16.5696 14.6053 16.4764 14.674 16.4077C14.7428 16.3389 14.836 16.3003 14.9332 16.3003H25.761C25.8582 16.3003 25.9515 16.3389 26.0202 16.4077C26.0889 16.4764 26.1276 16.5696 26.1276 16.6668C26.1276 16.7641 26.0889 16.8573 26.0202 16.926C25.9515 16.9948 25.8582 17.0334 25.761 17.0334Z" fill="#FFBC0E"/>
<path d="M30.0826 21.1462H14.9332C14.836 21.1462 14.7428 21.1076 14.674 21.0388C14.6053 20.9701 14.5667 20.8768 14.5667 20.7796C14.5667 20.6824 14.6053 20.5892 14.674 20.5204C14.7428 20.4517 14.836 20.4131 14.9332 20.4131H30.0826C30.1798 20.4131 30.2731 20.4517 30.3418 20.5204C30.4105 20.5892 30.4492 20.6824 30.4492 20.7796C30.4492 20.8768 30.4105 20.9701 30.3418 21.0388C30.2731 21.1076 30.1798 21.1462 30.0826 21.1462Z" fill="#FFBC0E"/>
<path d="M32.2489 17.0334H27.9933C27.896 17.0334 27.8028 16.9948 27.7341 16.926C27.6653 16.8573 27.6267 16.7641 27.6267 16.6668C27.6267 16.5696 27.6653 16.4764 27.7341 16.4077C27.8028 16.3389 27.896 16.3003 27.9933 16.3003H32.2489C32.3461 16.3003 32.4393 16.3389 32.5081 16.4077C32.5768 16.4764 32.6154 16.5696 32.6154 16.6668C32.6154 16.7641 32.5768 16.8573 32.5081 16.926C32.4393 16.9948 32.3461 17.0334 32.2489 17.0334Z" fill="#F56132"/>
<path d="M76.2602 0.366699H57.6542C56.6643 0.366699 55.8618 1.16919 55.8618 2.15912V14.8747C55.8618 15.8646 56.6643 16.6671 57.6542 16.6671H76.2602C77.2501 16.6671 78.0526 15.8646 78.0526 14.8747V2.15912C78.0526 1.16919 77.2501 0.366699 76.2602 0.366699Z" fill="white"/>
<path d="M76.2602 17.0335H57.6505C57.0779 17.0335 56.5288 16.806 56.1239 16.4011C55.719 15.9962 55.4916 15.4471 55.4916 14.8745V2.15897C55.4916 1.58637 55.719 1.03723 56.1239 0.632347C56.5288 0.227463 57.0779 0 57.6505 0H76.2565C76.8288 0.000969174 77.3774 0.228744 77.7821 0.633419C78.1867 1.03809 78.4145 1.58667 78.4155 2.15897V14.8745C78.4145 15.4462 78.1872 15.9942 77.7834 16.3988C77.3795 16.8033 76.8318 17.0315 76.2602 17.0335ZM57.6505 0.733095C57.2724 0.733095 56.9097 0.883322 56.6423 1.15072C56.3749 1.41813 56.2247 1.7808 56.2247 2.15897V14.8745C56.2247 15.2527 56.3749 15.6153 56.6423 15.8827C56.9097 16.1502 57.2724 16.3004 57.6505 16.3004H76.2565C76.6347 16.3004 76.9973 16.1502 77.2648 15.8827C77.5322 15.6153 77.6824 15.2527 77.6824 14.8745V2.15897C77.6824 1.7808 77.5322 1.41813 77.2648 1.15072C76.9973 0.883322 76.6347 0.733095 76.2565 0.733095H57.6505Z" fill="#093F68"/>
<path d="M74.1636 13.742H59.8683C59.771 13.742 59.6778 13.7033 59.6091 13.6346C59.5403 13.5659 59.5017 13.4726 59.5017 13.3754V2.93247C59.5017 2.83525 59.5403 2.74202 59.6091 2.67328C59.6778 2.60454 59.771 2.56592 59.8683 2.56592C59.9655 2.56592 60.0587 2.60454 60.1274 2.67328C60.1962 2.74202 60.2348 2.83525 60.2348 2.93247V13.0089H74.1636C74.2608 13.0089 74.3541 13.0475 74.4228 13.1162C74.4915 13.185 74.5302 13.2782 74.5302 13.3754C74.5302 13.4726 74.4915 13.5659 74.4228 13.6346C74.3541 13.7033 74.2608 13.742 74.1636 13.742Z" fill="#6881FD"/>
<path d="M61.5215 11.7257C61.4583 11.7255 61.3962 11.709 61.3412 11.6778C61.2863 11.6465 61.2404 11.6016 61.2079 11.5474C61.1755 11.4932 61.1576 11.4315 61.156 11.3683C61.1544 11.3051 61.1692 11.2426 61.1989 11.1868C61.4408 10.7323 63.6291 6.75894 65.7074 6.9642C66.0906 6.99781 66.462 7.1134 66.7965 7.30313C67.1311 7.49286 67.421 7.75229 67.6465 8.06385C67.8338 8.33806 68.0846 8.56292 68.3775 8.71929C68.6705 8.87566 68.9969 8.95889 69.3289 8.96189C70.238 8.99488 71.8068 7.86225 73.6249 5.87922C73.6561 5.84027 73.6951 5.80812 73.7392 5.78475C73.7834 5.76138 73.8318 5.74729 73.8817 5.74334C73.9315 5.73938 73.9815 5.74565 74.0288 5.76176C74.0761 5.77787 74.1196 5.80348 74.1567 5.83702C74.1937 5.87055 74.2235 5.9113 74.2442 5.95676C74.2649 6.00223 74.2761 6.05145 74.2771 6.1014C74.2781 6.15135 74.2689 6.20098 74.25 6.24724C74.2311 6.2935 74.203 6.33541 74.1673 6.3704C72.7561 7.92456 70.7731 9.74997 69.2959 9.69499C68.8648 9.68877 68.4412 9.58139 68.0592 9.38147C67.6772 9.18155 67.3475 8.8947 67.0966 8.54402C66.7118 8.10417 66.4075 7.75595 65.6304 7.68264C64.4245 7.57267 62.6651 9.97356 61.8367 11.5204C61.8076 11.5799 61.7629 11.6304 61.7074 11.6665C61.6519 11.7027 61.5876 11.7231 61.5215 11.7257Z" fill="#6881FD"/>
<path d="M16.1758 12.7632H1.61284C0.924548 12.7632 0.366577 13.3212 0.366577 14.0094V27.5497C0.366577 28.238 0.924548 28.796 1.61284 28.796H16.1758C16.8641 28.796 17.422 28.238 17.422 27.5497V14.0094C17.422 13.3212 16.8641 12.7632 16.1758 12.7632Z" fill="white"/>
<path d="M16.1758 29.1624H1.61281C1.18536 29.1614 0.775702 28.9912 0.473451 28.6889C0.1712 28.3867 0.000968172 27.977 0 27.5496V14.0093C0.000968172 13.5818 0.1712 13.1722 0.473451 12.8699C0.775702 12.5677 1.18536 12.3975 1.61281 12.3965H16.1758C16.6032 12.3975 17.0129 12.5677 17.3151 12.8699C17.6174 13.1722 17.7876 13.5818 17.7886 14.0093V27.5496C17.7876 27.977 17.6174 28.3867 17.3151 28.6889C17.0129 28.9912 16.6032 29.1614 16.1758 29.1624ZM1.61281 13.1296C1.37979 13.1305 1.15659 13.2235 0.991823 13.3883C0.827053 13.5531 0.73406 13.7763 0.733095 14.0093V27.5496C0.733095 27.7829 0.825779 28.0066 0.990757 28.1716C1.15574 28.3366 1.3795 28.4293 1.61281 28.4293H16.1758C16.4091 28.4293 16.6328 28.3366 16.7978 28.1716C16.9628 28.0066 17.0555 27.7829 17.0555 27.5496V14.0093C17.0545 13.7763 16.9615 13.5531 16.7967 13.3883C16.632 13.2235 16.4088 13.1305 16.1758 13.1296H1.61281Z" fill="#093F68"/>
<path d="M14.398 20.7793C14.3987 21.8722 14.075 22.9407 13.4679 23.8494C12.8608 24.7582 11.9976 25.4663 10.9877 25.884C9.97777 26.3017 8.8666 26.4102 7.79495 26.1959C6.72329 25.9815 5.73939 25.4539 4.96789 24.6798C4.19639 23.9057 3.67202 22.9201 3.46121 21.8477C3.25041 20.7753 3.36266 19.6645 3.78373 18.656C4.20481 17.6475 4.91577 16.7867 5.82653 16.1826C6.73729 15.5785 7.80687 15.2584 8.89975 15.2627C10.3579 15.2733 11.753 15.8585 12.7823 16.8913C13.8117 17.9241 14.3922 19.3211 14.398 20.7793Z" fill="#70CC40"/>
<path d="M8.89973 26.6665C7.61661 26.6637 6.36982 26.2402 5.35047 25.4609C4.33112 24.6816 3.59548 23.5895 3.25632 22.352C2.91716 21.1145 2.99319 19.7999 3.47277 18.6098C3.95234 17.4197 4.80898 16.4197 5.91138 15.7631C7.01378 15.1065 8.30109 14.8295 9.57598 14.9747C10.8509 15.1198 12.043 15.6791 12.9695 16.5667C13.8961 17.4543 14.506 18.6213 14.7058 19.8888C14.9055 21.1563 14.6841 22.4543 14.0754 23.5839C13.57 24.5159 12.8224 25.2943 11.9114 25.8369C11.0005 26.3794 9.96001 26.6661 8.89973 26.6665ZM8.89973 15.6298C7.87832 15.6247 6.8784 15.923 6.02676 16.487C5.17511 17.0509 4.5101 17.855 4.11603 18.7973C3.72196 19.7397 3.61659 20.7778 3.81327 21.7801C4.00996 22.7824 4.49984 23.7038 5.22081 24.4273C5.94177 25.1509 6.86136 25.644 7.86296 25.8443C8.86456 26.0445 9.90307 25.9429 10.8468 25.5522C11.7906 25.1615 12.597 24.4993 13.164 23.6497C13.7309 22.8 14.0328 21.8012 14.0314 20.7798C14.0295 19.4177 13.4888 18.1116 12.5274 17.1468C11.5659 16.1819 10.2618 15.6366 8.89973 15.6298Z" fill="#093F68"/>
<path d="M14.398 20.7797C14.3985 21.6984 14.1706 22.6029 13.7345 23.4115L8.89978 20.7797V15.2632C10.3597 15.268 11.7581 15.8514 12.7887 16.8854C13.8193 17.9194 14.398 19.3198 14.398 20.7797Z" fill="white"/>
<path d="M13.7492 23.7779C13.6878 23.7782 13.6273 23.7631 13.5732 23.734L8.72015 21.1021C8.6623 21.0705 8.61406 21.0238 8.58052 20.967C8.54697 20.9103 8.52936 20.8455 8.52954 20.7796V15.263C8.52954 15.1658 8.56816 15.0726 8.6369 15.0038C8.70564 14.9351 8.79888 14.8965 8.89609 14.8965C9.91495 14.8979 10.916 15.1637 11.8015 15.6677C12.6869 16.1717 13.4265 16.8967 13.948 17.772C14.4695 18.6473 14.755 19.6429 14.7767 20.6615C14.7984 21.6801 14.5555 22.687 14.0717 23.5837C14.0493 23.6264 14.0186 23.6642 13.9815 23.695C13.9444 23.7258 13.9016 23.749 13.8555 23.7633C13.821 23.7733 13.7851 23.7783 13.7492 23.7779ZM9.2663 20.5596L13.5916 22.9092C13.9337 22.1526 14.0881 21.3245 14.0416 20.4954C13.995 19.6663 13.749 18.8606 13.3243 18.147C12.8997 17.4334 12.309 16.8329 11.6025 16.3965C10.896 15.9601 10.0945 15.7008 9.2663 15.6406V20.5596Z" fill="#093F68"/>
</svg>